HIERARCHY
ROOT Hips
{
	OFFSET -0.001795 -0.223333 0.028219
	CHANNELS 6 Xposition Yposition Zposition Zrotation Yrotation Xrotation
	JOINT LeftUpLeg
	{
		OFFSET 0.069520 -0.091406 -0.006815
		CHANNELS 3 Zrotation Yrotation Xrotation
		JOINT LeftLeg
		{
			OFFSET 0.034277 -0.375199 -0.004496
			CHANNELS 3 Zrotation Yrotation Xrotation
			JOINT LeftFoot
			{
				OFFSET -0.013596 -0.397961 -0.043693
				CHANNELS 3 Zrotation Yrotation Xrotation
				JOINT LeftToe
				{
					OFFSET 0.026358 -0.055791 0.119288
					CHANNELS 3 Zrotation Yrotation Xrotation
					End Site
					{
						OFFSET 0.000000 0.000000 0.000000
					}
				}
			}
		}
	}
	JOINT RightUpLeg
	{
		OFFSET -0.067670 -0.090522 -0.004320
		CHANNELS 3 Zrotation Yrotation Xrotation
		JOINT RightLeg
		{
			OFFSET -0.038290 -0.382569 -0.008850
			CHANNELS 3 Zrotation Yrotation Xrotation
			JOINT RightFoot
			{
				OFFSET 0.015774 -0.398415 -0.042312
				CHANNELS 3 Zrotation Yrotation Xrotation
				JOINT RightToe
				{
					OFFSET -0.025372 -0.048144 0.123348
					CHANNELS 3 Zrotation Yrotation Xrotation
					End Site
					{
						OFFSET 0.000000 0.000000 0.000000
					}
				}
			}
		}
	}
	JOINT Spine
	{
		OFFSET -0.002533 0.108963 -0.026696
		CHANNELS 3 Zrotation Yrotation Xrotation
		JOINT Spine1
		{
			OFFSET 0.005487 0.135180 0.001092
			CHANNELS 3 Zrotation Yrotation Xrotation
			JOINT Spine2
			{
				OFFSET 0.001457 0.052922 0.025425
				CHANNELS 3 Zrotation Yrotation Xrotation
				JOINT Neck
				{
					OFFSET -0.002778 0.213870 -0.042857
					CHANNELS 3 Zrotation Yrotation Xrotation
					JOINT Head
					{
						OFFSET 0.005152 0.064970 0.051349
						CHANNELS 3 Zrotation Yrotation Xrotation
						End Site
						{
							OFFSET 0.000000 0.000000 0.000000
						}
					}
				}
				JOINT LeftShoulder
				{
					OFFSET 0.078845 0.121749 -0.034090
					CHANNELS 3 Zrotation Yrotation Xrotation
					JOINT LeftArm
					{
						OFFSET 0.090977 0.030469 -0.008868
						CHANNELS 3 Zrotation Yrotation Xrotation
						JOINT LeftForeArm
						{
							OFFSET 0.259612 -0.012772 -0.027456
							CHANNELS 3 Zrotation Yrotation Xrotation
							JOINT LeftHand
							{
								OFFSET 0.249234 0.008986 -0.001171
								CHANNELS 3 Zrotation Yrotation Xrotation
								End Site
								{
									OFFSET 0.000000 0.000000 0.000000
								}
							}
						}
					}
				}
				JOINT RightShoulder
				{
					OFFSET -0.081759 0.118833 -0.038615
					CHANNELS 3 Zrotation Yrotation Xrotation
					JOINT RightArm
					{
						OFFSET -0.096012 0.032551 -0.009143
						CHANNELS 3 Zrotation Yrotation Xrotation
						JOINT RightForeArm
						{
							OFFSET -0.253742 -0.013329 -0.021401
							CHANNELS 3 Zrotation Yrotation Xrotation
							JOINT RightHand
							{
								OFFSET -0.255298 0.007772 -0.005559
								CHANNELS 3 Zrotation Yrotation Xrotation
								End Site
								{
									OFFSET 0.000000 0.000000 0.000000
								}
							}
						}
					}
				}
			}
		}
	}
}
MOTION
Frames: 13
Frame Time: 0.050000
0.000000 0.942231 0.000000 -51.076678 -16.264677 82.036648 -50.966734 42.658535 -121.928855 75.839499 -37.430034 19.712693 20.872233 -6.922877 -87.460345 0.000000 0.000000 0.000000 68.220253 61.238051 176.872722 76.963797 21.116879 -42.792815 -10.772045 -25.635324 -9.200509 0.000000 0.000000 0.000000 50.543175 11.552998 135.703377 -2.284050 0.774920 -26.849210 -42.346580 -52.154977 47.764824 5.119888 2.381330 -58.051749 0.000000 0.000000 0.000000 61.340985 7.641573 -4.793287 19.814280 -11.680666 2.929404 8.439669 17.455879 4.377924 0.000000 0.000000 0.000000 -55.230936 -20.027906 15.557079 -17.949039 2.823423 0.082013 -3.260350 -19.065671 -2.385858 0.000000 0.000000 0.000000
-0.048897 0.958412 0.062903 -113.269091 -43.069898 68.374596 7.504286 -10.192416 70.148308 -42.410090 49.969981 14.994598 -2.431100 15.412509 -79.942049 0.000000 0.000000 0.000000 -67.217017 -4.297435 -80.887766 -123.543478 -41.317227 40.284958 -129.347298 -27.670215 148.344012 0.000000 0.000000 0.000000 32.358337 -38.317537 -150.549837 1.411147 0.328248 -24.650335 -146.430608 -47.627511 141.178205 1.775879 0.239123 -56.319349 0.000000 0.000000 0.000000 55.094869 7.004300 -2.571185 21.712600 -9.471904 0.089470 16.820565 15.984195 3.789172 0.000000 0.000000 0.000000 -55.348058 -15.278739 8.973166 -20.475658 -3.992991 0.600642 -7.766965 -20.191192 -1.278662 0.000000 0.000000 0.000000
-0.101841 0.980082 0.125205 -122.516515 -46.144197 73.254518 26.113137 10.551784 79.956010 -18.091884 46.877808 43.399934 3.491458 18.268072 -70.634177 0.000000 0.000000 0.000000 -74.765501 3.174454 -100.316260 -127.741355 -25.635102 47.046013 160.753444 -18.777104 -173.128330 0.000000 0.000000 0.000000 -33.593368 -57.719258 -97.069413 1.489292 0.068705 -25.269234 -176.232520 -4.818354 158.993243 -2.932899 0.500595 -59.616551 0.000000 0.000000 0.000000 56.610802 4.990149 -7.192467 19.231269 -8.980745 1.775340 15.841117 17.268669 8.357162 0.000000 0.000000 0.000000 -54.062212 -18.345113 11.992147 -14.661592 -2.243080 0.598570 -11.752117 -21.033751 -4.204004 0.000000 0.000000 0.000000
-0.155768 0.990997 0.183923 -92.798823 -56.851611 35.560813 41.904980 7.148719 96.907035 13.069746 12.888994 67.813407 11.140000 13.517991 -69.154672 0.000000 0.000000 0.000000 -63.923236 13.598069 -84.816532 -110.332587 -38.515532 17.044471 44.858032 3.445459 158.080221 0.000000 0.000000 0.000000 -87.045650 -47.764244 -57.257845 1.671399 0.207300 -25.513008 178.097450 9.578477 162.196625 -5.055314 -1.934065 -57.804247 0.000000 0.000000 0.000000 56.462912 7.821310 0.045306 18.484671 -8.851678 3.048873 18.142660 17.377902 15.089438 0.000000 0.000000 0.000000 -54.543991 -13.982713 4.563828 -13.926714 -0.987571 1.201695 -12.361537 -20.597646 -6.427176 0.000000 0.000000 0.000000
-0.209713 0.983816 0.237662 -72.414704 -55.998754 10.768550 46.476805 0.314291 110.429055 17.457946 -9.288388 82.097570 15.270340 8.887279 -73.268942 0.000000 0.000000 0.000000 -33.801204 22.314639 -77.313437 -103.204618 -35.350612 -12.753560 -16.580589 -6.673720 148.661811 0.000000 0.000000 0.000000 -101.292941 -34.363604 -47.916780 2.266887 0.136062 -26.043312 172.771444 19.813840 162.482863 -1.614935 -4.733321 -57.343455 0.000000 0.000000 0.000000 60.241453 0.594685 -27.381460 11.650417 -7.787458 -0.374131 24.206373 -3.294153 -24.124342 0.000000 0.000000 0.000000 -55.413701 -20.842252 34.185739 -14.462584 8.805499 2.492389 1.105915 -29.661209 19.599176 0.000000 0.000000 0.000000
-0.261057 0.972797 0.287119 -56.169123 -53.977213 -9.825976 47.283748 -10.290523 121.088564 4.594691 -18.604730 99.871241 12.808060 11.623335 -72.175785 0.000000 0.000000 0.000000 -0.771756 22.364439 -52.155590 -110.875864 -28.973336 -38.790821 50.975520 -7.538105 136.716025 0.000000 0.000000 0.000000 -102.383557 -28.740014 -50.141803 2.795516 0.033556 -26.189245 175.272335 17.122573 163.514714 -1.458825 -4.316319 -56.001947 0.000000 0.000000 0.000000 58.378495 0.547892 -21.369509 12.436838 -8.544844 -0.058712 26.725185 -2.431637 -25.545238 0.000000 0.000000 0.000000 -54.274416 -19.227398 29.629709 -14.142358 11.035651 3.355658 -1.542019 -26.409871 16.102819 0.000000 0.000000 0.000000
-0.310497 0.943100 0.334966 -59.738108 -51.819741 -6.087825 40.147436 -1.177793 127.097161 -18.696961 13.265327 112.862382 12.819072 39.442222 -36.580397 0.000000 0.000000 0.000000 27.411095 18.500132 -35.260146 -136.177131 -23.598190 -40.416434 56.664170 -16.221744 109.455339 0.000000 0.000000 0.000000 -106.632885 -19.272818 -44.512582 2.841661 -0.008586 -27.136768 168.026732 29.534627 161.597068 -0.257243 -2.256521 -56.484218 0.000000 0.000000 0.000000 54.738098 2.324127 -13.253812 11.349487 -10.370046 -0.318914 28.539576 -0.517912 -23.405085 0.000000 0.000000 0.000000 -53.307792 -15.310149 20.026409 -11.983017 14.344218 5.297665 -5.805015 -26.212541 16.418833 0.000000 0.000000 0.000000
-0.357937 0.900541 0.383828 -62.336663 -58.087357 -4.772216 35.891086 11.037827 135.868435 -43.295315 39.546341 102.544747 17.187974 25.512832 60.242209 0.000000 0.000000 0.000000 43.988259 4.481221 -14.025442 -178.026460 8.878668 -35.014714 51.215098 11.118969 66.944241 0.000000 0.000000 0.000000 -102.761383 -15.250510 -52.057601 3.792928 -0.185467 -27.230521 166.349650 33.806508 161.099519 -0.454530 -2.811609 -57.680852 0.000000 0.000000 0.000000 53.518239 1.868368 -9.228227 11.146268 -12.340461 -0.943012 29.726718 -0.321456 -24.250875 0.000000 0.000000 0.000000 -52.637711 -14.603503 18.753589 -5.938749 20.341574 10.036331 -10.420941 -28.257594 19.590089 0.000000 0.000000 0.000000
-0.399531 0.840107 0.437903 -68.705928 -63.689374 0.526928 19.050353 48.297681 133.753288 -124.381646 21.541730 17.202219 -2.454680 18.148632 77.737354 0.000000 0.000000 0.000000 45.020160 -5.465828 -2.173393 59.019192 61.853016 -127.692389 3.860351 -1.875939 49.498812 0.000000 0.000000 0.000000 -101.178169 -10.720054 -57.732777 4.394512 -0.303659 -27.472894 161.082004 41.323766 159.168373 1.035088 -1.178646 -58.622544 0.000000 0.000000 0.000000 52.624318 4.118570 -3.664048 7.525167 -14.250664 -2.013244 32.445488 -3.251439 -28.025197 0.000000 0.000000 0.000000 -52.329279 -11.916927 15.246875 0.503768 25.797934 16.509226 -14.845091 -32.924988 24.223590 0.000000 0.000000 0.000000
-0.431514 0.767290 0.500390 -74.769134 -75.299022 4.616491 -40.658398 70.434158 67.999282 -129.672532 -33.460532 -16.030775 -13.376832 6.417535 69.414958 0.000000 0.000000 0.000000 25.043629 -11.484023 14.142331 46.799073 56.745222 -147.035317 1.685981 -5.213915 57.174531 0.000000 0.000000 0.000000 -96.266513 -10.740702 -72.593005 5.098039 -0.437594 -27.204917 161.697423 41.435384 159.444912 1.031146 -1.191487 -58.675978 0.000000 0.000000 0.000000 50.070209 0.212011 -7.811284 3.120723 -14.363250 -3.681400 37.992545 -6.554933 -36.425608 0.000000 0.000000 0.000000 -50.136686 -12.305326 22.805393 1.911954 38.277755 27.565564 -5.102297 -56.474027 36.293911 0.000000 0.000000 0.000000
-0.455773 0.681340 0.571752 -85.736941 -76.507956 16.026984 -62.121004 60.891213 32.534514 -108.004178 -44.756690 -44.622546 -10.013112 8.344292 66.591345 0.000000 0.000000 0.000000 11.730078 -6.209979 13.438946 90.633529 68.169641 -123.241264 2.446178 -4.659512 47.341758 0.000000 0.000000 0.000000 -97.830128 -9.818569 -75.166787 5.990669 -0.625318 -27.782589 156.970049 46.444421 157.390302 2.395192 0.325517 -59.668061 0.000000 0.000000 0.000000 46.599861 -0.482539 -8.249734 -2.349321 -15.763676 -6.020810 50.865779 -11.747864 -53.405260 0.000000 0.000000 0.000000 -45.576349 -9.719798 29.877762 3.186974 56.364513 42.390004 60.605474 -71.189734 -5.784840 0.000000 0.000000 0.000000
-0.476522 0.575254 0.646495 -71.004873 -71.910394 0.550288 -71.427392 53.967572 19.927054 -72.749708 -42.727282 -72.594126 -28.221152 43.557773 -91.397660 0.000000 0.000000 0.000000 -3.375941 0.925946 6.490708 -176.137616 72.953304 -50.106837 -5.064951 34.086529 -1.621061 0.000000 0.000000 0.000000 -93.604194 -11.215196 -72.736158 5.865794 -0.580480 -27.251969 167.606650 39.210059 164.115720 1.418464 -1.976477 -64.254147 0.000000 0.000000 0.000000 43.498350 -9.123787 -18.455230 -8.476827 -8.994571 -7.646011 72.621119 -24.437795 -93.391419 0.000000 0.000000 0.000000 -41.195122 -10.868089 62.636768 -87.113923 67.218893 -2.981426 122.209439 -22.753788 -3.482269 0.000000 0.000000 0.000000
-0.496847 0.455042 0.711983 -44.947193 -59.528278 -26.642536 -59.654698 61.725084 43.903370 -71.161729 -36.494117 -59.533499 -12.286613 49.154165 -100.097514 0.000000 0.000000 0.000000 -30.414848 17.215879 12.672581 -103.807854 57.735039 14.252913 -25.670641 5.789879 -92.534461 0.000000 0.000000 0.000000 -88.831458 -15.740210 -65.030743 8.548121 -1.130243 -27.017899 -175.759462 16.684980 169.870058 20.064231 -45.306318 -108.329830 0.000000 0.000000 0.000000 47.428461 -21.859138 -53.162279 -10.496763 6.509258 -11.468356 129.777386 -56.774768 125.117829 0.000000 0.000000 0.000000 -0.318024 53.726898 -121.353983 -7.162623 -30.704365 4.020763 -178.945922 50.203653 145.425611 0.000000 0.000000 0.000000
